<svg width="24" height="24" viewBox="0 0 24 24" fill="none" xmlns="http://www.w3.org/2000/svg">
<path d="M13.261 11.782C13.069 11.746 12.871 11.728 12.667 11.728C12.295 11.728 11.947 11.809 11.623 11.971C11.299 12.133 11.017 12.352 10.777 12.628C10.543 12.904 10.357 13.222 10.219 13.582C10.081 13.936 10.012 14.305 10.012 14.689C10.012 15.073 10.093 15.373 10.255 15.589C10.423 15.799 10.666 15.904 10.984 15.904C11.14 15.904 11.296 15.88 11.452 15.832C11.614 15.784 11.767 15.7 11.911 15.58C12.055 15.454 12.187 15.289 12.307 15.085C12.427 14.881 12.526 14.626 12.604 14.32L13.261 11.782ZM14.314 14.086C14.218 14.47 14.17 14.785 14.17 15.031C14.176 15.271 14.215 15.463 14.287 15.607C14.359 15.745 14.461 15.841 14.593 15.895C14.725 15.949 14.875 15.976 15.043 15.976C15.295 15.976 15.532 15.898 15.754 15.742C15.982 15.58 16.18 15.355 16.348 15.067C16.516 14.779 16.648 14.437 16.744 14.041C16.846 13.645 16.897 13.213 16.897 12.745C16.897 11.965 16.774 11.278 16.528 10.684C16.288 10.09 15.949 9.595 15.511 9.199C15.073 8.797 14.551 8.497 13.945 8.299C13.345 8.095 12.685 7.993 11.965 7.993C11.173 7.993 10.441 8.143 9.769 8.443C9.097 8.737 8.512 9.142 8.014 9.658C7.522 10.174 7.135 10.783 6.853 11.485C6.577 12.187 6.439 12.943 6.439 13.753C6.439 14.737 6.592 15.604 6.898 16.354C7.204 17.098 7.624 17.722 8.158 18.226C8.692 18.724 9.319 19.099 10.039 19.351C10.765 19.603 11.548 19.729 12.388 19.729C12.85 19.729 13.282 19.702 13.684 19.648C14.086 19.6 14.455 19.531 14.791 19.441C15.127 19.357 15.433 19.258 15.709 19.144C15.985 19.036 16.231 18.919 16.447 18.793C16.603 18.703 16.741 18.676 16.861 18.712C16.981 18.748 17.068 18.838 17.122 18.982L17.428 19.783C16.804 20.191 16.075 20.524 15.241 20.782C14.407 21.04 13.456 21.169 12.388 21.169C11.302 21.169 10.297 20.998 9.373 20.656C8.449 20.314 7.648 19.822 6.97 19.18C6.298 18.544 5.77 17.767 5.386 16.849C5.008 15.931 4.819 14.899 4.819 13.753C4.819 13.111 4.9 12.487 5.062 11.881C5.23 11.275 5.467 10.708 5.773 10.18C6.079 9.646 6.448 9.157 6.88 8.713C7.312 8.269 7.792 7.888 8.32 7.57C8.848 7.252 9.418 7.006 10.03 6.832C10.648 6.652 11.293 6.562 11.965 6.562C12.817 6.562 13.633 6.706 14.413 6.994C15.199 7.276 15.892 7.684 16.492 8.218C17.098 8.746 17.581 9.394 17.941 10.162C18.301 10.924 18.481 11.785 18.481 12.745C18.481 13.387 18.385 13.99 18.193 14.554C18.007 15.112 17.743 15.598 17.401 16.012C17.065 16.426 16.666 16.753 16.204 16.993C15.748 17.227 15.25 17.344 14.71 17.344C14.296 17.344 13.93 17.248 13.612 17.056C13.294 16.864 13.075 16.555 12.955 16.129C12.601 16.561 12.226 16.87 11.83 17.056C11.434 17.242 11.005 17.335 10.543 17.335C10.165 17.335 9.835 17.269 9.553 17.137C9.277 17.005 9.043 16.825 8.851 16.597C8.665 16.363 8.524 16.09 8.428 15.778C8.338 15.46 8.293 15.115 8.293 14.743C8.293 14.401 8.335 14.056 8.419 13.708C8.509 13.354 8.641 13.015 8.815 12.691C8.989 12.361 9.205 12.055 9.463 11.773C9.727 11.485 10.033 11.236 10.381 11.026C10.735 10.81 11.131 10.642 11.569 10.522C12.013 10.396 12.499 10.333 13.027 10.333C13.495 10.333 13.894 10.369 14.224 10.441C14.554 10.513 14.872 10.615 15.178 10.747L14.314 14.086Z" fill="#C4C4C4"/>
</svg>
