<svg width="24" height="24" viewBox="0 0 24 24" fill="none" xmlns="http://www.w3.org/2000/svg">
<path fill-rule="evenodd" clip-rule="evenodd" d="M5.97883 11.0798C9.80099 9.41457 12.3497 8.31673 13.6249 7.78631C17.266 6.27186 18.0226 6.00878 18.5158 6.00009C18.6242 5.99818 18.8667 6.02506 19.0238 6.15253C19.1565 6.26016 19.193 6.40555 19.2104 6.50759C19.2279 6.60964 19.2496 6.8421 19.2323 7.02373C19.035 9.09691 18.1813 14.128 17.7469 16.45C17.5631 17.4325 17.2012 17.7619 16.8509 17.7942C16.0895 17.8642 15.5113 17.291 14.7739 16.8076C13.6199 16.0511 12.968 15.5803 11.8479 14.8421C10.5535 13.9891 11.3926 13.5202 12.1303 12.754C12.3234 12.5535 15.6781 9.50215 15.743 9.22534C15.7511 9.19072 15.7587 9.06168 15.682 8.99354C15.6053 8.9254 15.4922 8.9487 15.4105 8.96723C15.2948 8.9935 13.4514 10.212 9.88021 12.6226C9.35695 12.9819 8.883 13.157 8.45836 13.1478C7.99022 13.1377 7.08972 12.8831 6.42029 12.6655C5.59921 12.3986 4.94662 12.2575 5.00345 11.8042C5.03305 11.5681 5.35818 11.3266 5.97883 11.0798Z" fill="#C4C4C4"/>
</svg>
